# xmcd
#
# Track frame offsets:
#	150
#	13255
#	31054
#	46035
#	61503
#	82097
#	95723
#	111778
#	127705
#	143572
#	160104
#
# Disc length: 2375 seconds
#
# Revision: 1
# Processed by: cddbd v1.5.2PL0 Copyright (c) Steve Scherf et al.
# Submitted via: EasyCDDAExtractor 7.1.0.1
#
DISCID=7c09450b
DTITLE=Alteza - Mexico to Texas
DYEAR=2005
DGENRE=Latin
TTITLE0=Suenos de Alegria
TTITLE1=Vida Sin Tu Amor
TTITLE2=The Curse
TTITLE3=El Porompompero
TTITLE4=Mexico to Texas
TTITLE5=How Long Must I Cry
TTITLE6=Don't Give Up On Me
TTITLE7=El Pescador
TTITLE8=Loving Arms
TTITLE9=Fred Mendoza
TTITLE10=Curandera Women
EXTD=
EXTT0=
EXTT1=
EXTT2=
EXTT3=
EXTT4=
EXTT5=
EXTT6=
EXTT7=
EXTT8=
EXTT9=
EXTT10=
PLAYORDER=
